<?xml version="1.0" encoding="UTF-8"?><svg id="Calque_2" xmlns="http://www.w3.org/2000/svg" viewBox="0 0 200 200"><defs><style>.cls-1{fill:#fff;stroke-width:0px;}</style></defs><g id="Calque_25"><polygon class="cls-1" points="0 40.24 0 77.35 53.29 77.35 78.2 77.35 78.2 40.24 0 40.24"/><polygon class="cls-1" points="0 116.18 0 159.14 78.2 159.14 78.2 116.18 53.29 116.18 0 116.18"/><path class="cls-1" d="m169.21,90.76c11.39-7.42,17.08-23.69,17.08-37.68,0-34.25-25.1-53.09-54.86-53.09h-53.23v40.17h25.73v.08h13.27c10.61,0,18.89,5.99,18.89,18.55s-8.28,18.55-18.89,18.55h-13.97s-8.63,0-8.63,0h-16.39v38.83h25.02s24.58-.01,24.58-.01c12.42,0,21.48,7.71,21.48,21.69s-9.31,21.41-21.48,21.41h-24.58v-.02h-25.02v40.71h0v.05h25.72l32.95-.2c32.34,0,63.14-19.12,63.14-59.08,0-23.98-11.9-40.53-30.79-49.95Z"/></g></svg>